<svg xmlns="http://www.w3.org/2000/svg" version="1.1" xmlns:xlink="http://www.w3.org/1999/xlink" xmlns:svgjs="http://svgjs.dev/svgjs" width="100%" height="100%" viewBox="0 0 1000 600"><rect width="1000" height="600" x="0" y="0" fill="#7b2869"/><g><circle r="166.66666666666666" cx="428.299082438151" cy="441.5738162803234" fill="#ffbbee" transform="matrix(0.4946871550414392,0,0,0.4946871550414392,-2.2366073562973248,81.55909761623604)"/><path d="M405.9586236607796 489.01092914295333L442.7187778571863 368.66276844311506L462.5640386861857 368.66276844311506L414.92380728089773 514.4848165813473L395.9199390893852 514.4848165813473L360.40736707959684 401.27398653053507L359.36287966754423 401.27398653053507L323.8503076577559 514.4848165813473L304.84643946624334 514.4848165813473L257.20620806095536 368.66276844311506L277.0514688899547 368.66276844311506L313.84063662558515 489.01092914295333L314.4499209492825 489.01092914295333L351.64527823404444 368.66276844311506L368.15398205232026 368.66276844311506L405.3203257978586 489.01092914295333L405.9586236607796 489.01092914295333ZM599.3918896650761 398.9529033926404L598.3474022530235 398.9529033926404Q576.8193561490505 384.76528271225925 550.9392791615251 384.76528271225925Q525.0301886347759 384.76528271225925 510.4073648660394 400.63568866761403Q495.7845410973031 416.5060946229688 495.7845410973031 441.5737925122312Q495.7845410973031 466.64149040149357 510.4073648660394 482.5118963568483Q525.0301886347759 498.4113158514267 550.9392791615251 498.4113158514267Q576.8193561490505 498.4113158514267 598.3474022530235 484.19468163182194L598.3474022530235 484.19468163182194L599.3918896650761 484.19468163182194L599.3918896650761 502.9954550487687Q576.8193561490505 516.5737914054525 549.8947917494725 516.5737914054525L549.8947917494725 516.5737914054525Q517.9218715249734 516.5737914054525 497.351272215382 496.20628687042677Q476.78067290579054 475.8387823354011 476.78067290579054 441.5737925122312Q476.78067290579054 407.3088026890612 497.351272215382 386.9412981540355Q517.9218715249734 366.57379361900985 549.8947917494725 366.57379361900985L549.8947917494725 366.57379361900985Q576.8193561490505 366.57379361900985 599.3918896650761 380.15212997569364L599.3918896650761 380.15212997569364L599.3918896650761 398.9529033926404Z " fill="#2f3c7e" transform="matrix(0.4946871550414392,0,0,0.4946871550414392,-2.2366073562973248,81.55909761623604)"/><path d="M822.6402669824406 489.82829350242065L858.3103102908511 373.04901990866597L877.567066110072 373.04901990866597L831.3395908832289 514.546760767444L812.8992764657002 514.546760767444L778.4398186839364 404.693162512181L777.426305219767 404.693162512181L742.9668474380032 514.546760767444L724.5265330204745 514.546760767444L678.2990577936314 373.04901990866597L697.5558136128523 373.04901990866597L733.2540100730454 489.82829350242065L733.8452262604776 489.82829350242065L769.9375668456255 373.04901990866597L785.9567102098604 373.04901990866597L822.0208976432258 489.82829350242065L822.6402669824406 489.82829350242065ZM986.8294481779028 462.85757409479845L986.8294481779028 462.85757409479845L986.8294481779028 469.3327990047704L908.5918393743723 469.3327990047704Q910.196569025974 483.52198750314363 919.1211181410224 491.4330231540224Q928.0456672560706 499.3440588049011 946.176297003992 499.3440588049011Q964.3350799036959 499.3440588049011 979.7348539287161 489.20892416320595L979.7348539287161 489.20892416320595L980.7483673928857 489.20892416320595L980.7483673928857 507.0580223933025Q963.7157105644812 516.573787695783 940.7145855581896 516.573787695783Q917.713460551898 516.573787695783 903.8058035713495 502.4972118045397Q889.9262997425836 488.39248276151386 889.9262997425836 464.3778442910527Q889.9262997425836 440.3632058205916 902.2855333750954 424.7382065813115Q914.6729201593894 409.14136049381386 938.3778739602432 409.14136049381386Q962.082827761097 409.14136049381386 974.4702145453912 424.7382065813115Q986.8294481779028 440.3632058205916 986.8294481779028 462.85757409479845ZM908.5918393743723 454.35532225648745L908.5918393743723 454.35532225648745L968.3891337603741 454.35532225648745Q967.5726923586819 439.7438364813769 958.5355306365036 432.2550981072354Q949.5265220661079 424.7382065813115 938.3778739602432 424.7382065813115Q927.2292258543785 424.7382065813115 918.3046767393303 432.2550981072354Q909.380127624282 439.7438364813769 908.5918393743723 454.35532225648745ZM1102.369983093228 462.85757409479845L1102.369983093228 462.85757409479845L1102.369983093228 469.3327990047704L1024.1323742896975 469.3327990047704Q1025.7371039412992 483.52198750314363 1034.6616530563474 491.4330231540224Q1043.5862021713958 499.3440588049011 1061.7168319193174 499.3440588049011Q1079.8756148190212 499.3440588049011 1095.2753888440413 489.20892416320595L1095.2753888440413 489.20892416320595L1096.288902308211 489.20892416320595L1096.288902308211 507.0580223933025Q1079.2562454798065 516.573787695783 1056.2551204735148 516.573787695783Q1033.2539954672231 516.573787695783 1019.3463384866749 502.4972118045397Q1005.4668346579089 488.39248276151386 1005.4668346579089 464.3778442910527Q1005.4668346579089 440.3632058205916 1017.8260682904206 424.7382065813115Q1030.2134550747146 409.14136049381386 1053.9184088755685 409.14136049381386Q1077.6233626764222 409.14136049381386 1090.0107494607164 424.7382065813115Q1102.369983093228 440.3632058205916 1102.369983093228 462.85757409479845ZM1024.1323742896975 454.35532225648745L1024.1323742896975 454.35532225648745L1083.9296686756993 454.35532225648745Q1083.1132272740072 439.7438364813769 1074.0760655518288 432.2550981072354Q1065.0670569814333 424.7382065813115 1053.9184088755685 424.7382065813115Q1042.7697607697037 424.7382065813115 1033.8452116546555 432.2550981072354Q1024.9206625396073 439.7438364813769 1024.1323742896975 454.35532225648745ZM1146.1481341149947 424.14699039387926Q1160.5343946758453 409.14136049381386 1180.2134477718037 409.14136049381386Q1199.8643477159794 409.14136049381386 1214.5602929464374 423.724693117142Q1229.2562381768953 438.3361788922525 1229.2562381768953 462.85757409479845Q1229.2562381768953 487.3789692973443 1214.5602929464374 501.9904550724549Q1199.8643477159794 516.573787695783 1180.2134477718037 516.573787695783Q1160.5343946758453 516.573787695783 1146.1481341149947 501.5681577957176L1146.1481341149947 501.5681577957176L1145.52876477578 501.5681577957176L1143.3046657849636 514.546760767444L1127.0884503582513 514.546760767444L1127.0884503582513 366.57379499869404L1145.52876477578 366.57379499869404L1145.52876477578 424.14699039387926L1146.1481341149947 424.14699039387926ZM1177.5670515042498 499.3440588049011L1177.5670515042498 499.3440588049011Q1192.5726814043153 499.3440588049011 1201.694302581841 489.82829350242065Q1210.8159237593666 480.2843750481577 1210.8159237593666 462.85757409479845Q1210.8159237593666 445.4307731414392 1201.694302581841 435.8868546871762Q1192.5726814043153 426.3710893846957 1177.5670515042498 426.3710893846957L1177.5670515042498 426.3710893846957Q1159.3238091491985 426.3710893846957 1145.52876477578 441.5737913472385L1145.52876477578 441.5737913472385L1145.52876477578 484.14135684235833Q1159.3238091491985 499.3440588049011 1177.5670515042498 499.3440588049011ZM1292.4882170803605 425.9769452597409Q1279.5377672604163 425.9769452597409 1273.3440738682693 429.918386509289Q1267.1503804761223 433.8598277588372 1267.1503804761223 439.85644908850685Q1267.1503804761223 445.824917266394 1273.4566864753992 449.06252972138Q1279.734839322894 452.32829532814844 1288.7438478932897 454.2427096493575Q1297.7810096154678 456.1571239705666 1306.6774055787337 459.00059230059776Q1315.601954693782 461.8440606306289 1321.8801075412764 468.74158281733816Q1328.1864135405533 475.6391050040474 1328.1864135405533 487.5760413598217Q1328.1864135405533 499.54113086737857 1317.9386662917284 508.071535857472Q1307.690919042903 516.573787695783 1287.5332623666427 516.573787695783Q1267.3756056903821 516.573787695783 1250.7370929869326 507.4521665182573L1250.7370929869326 507.4521665182573L1250.7370929869326 489.82829350242065L1251.7506064511022 489.82829350242065Q1268.163893940292 499.54113086737857 1287.84294703625 499.54113086737857L1287.84294703625 499.54113086737857Q1310.337315310457 499.54113086737857 1310.337315310457 485.15487030652787L1310.337315310457 485.15487030652787Q1310.337315310457 480.4814471106351 1304.0591624629624 477.5535193252565Q1297.7810096154678 474.62559153987786 1288.8564605004196 472.5985646115388Q1279.9319113853712 470.5715376831998 1271.007362270323 467.7280693531686Q1262.0828131552748 464.88460102313746 1255.8046603077803 458.18415089890567Q1249.5265074602858 451.5118539264563 1249.5265074602858 441.17964722228373L1249.5265074602858 441.17964722228373Q1249.5265074602858 426.9904587239104 1259.774254709111 418.06590960886217Q1269.9938488061534 409.14136049381386 1287.6458749737728 409.14136049381386Q1305.2697479896094 409.14136049381386 1320.4724499521521 414.8282971538762L1320.4724499521521 414.8282971538762L1320.4724499521521 431.6357287680207L1319.064792363028 431.6357287680207Q1305.4668200520866 425.9769452597409 1292.4882170803605 425.9769452597409ZM1466.6154608550405 402.44091036958207L1465.6019473908707 402.44091036958207Q1444.7404619200483 388.67401914794607 1419.5996973782878 388.67401914794607Q1394.458932836527 388.67401914794607 1380.2697443381537 404.0737931729663Q1366.0805558397803 419.4735671979865 1366.0805558397803 443.79789033805497Q1366.0805558397803 468.12221347812346 1380.2697443381537 483.52198750314363Q1394.458932836527 498.94991467994635 1419.5996973782878 498.94991467994635Q1444.7404619200483 498.94991467994635 1465.6019473908707 485.15487030652787L1465.6019473908707 485.15487030652787L1466.6154608550405 485.15487030652787L1466.6154608550405 503.39811266157926Q1444.7404619200483 516.573787695783 1418.5861839141182 516.573787695783L1418.5861839141182 516.573787695783Q1387.5614106498176 516.573787695783 1367.6008260360347 496.8102751444774Q1347.6402414222518 477.0467625931717 1347.6402414222518 443.79789033805497Q1347.6402414222518 410.54901808293823 1367.6008260360347 390.78550553163257Q1387.5614106498176 371.02199298032696 1418.5861839141182 371.02199298032696L1418.5861839141182 371.02199298032696Q1444.7404619200483 371.02199298032696 1466.6154608550405 384.1976680145307L1466.6154608550405 384.1976680145307L1466.6154608550405 402.44091036958207ZM1495.4161351285243 366.57379499869404L1513.856449546053 366.57379499869404L1513.856449546053 514.546760767444L1495.4161351285243 514.546760767444L1495.4161351285243 366.57379499869404ZM1582.9724371720577 516.573787695783L1582.9724371720577 516.573787695783Q1566.1368524061309 516.573787695783 1556.4240150411727 505.2280675274409Q1546.6830245244325 493.88234735909873 1546.6830245244325 476.8496905306943L1546.6830245244325 476.8496905306943L1546.6830245244325 411.16838742215293L1565.1233389419613 411.16838742215293L1565.1233389419613 474.82266360235525Q1565.1233389419613 499.54113086737857 1587.4206351536907 499.54113086737857L1587.4206351536907 499.54113086737857Q1605.0726613213099 499.54113086737857 1620.6695074088072 480.08730298568025L1620.6695074088072 480.08730298568025L1620.6695074088072 411.16838742215293L1639.1098218263362 411.16838742215293L1639.1098218263362 514.546760767444L1622.8936063996236 514.546760767444L1620.6695074088072 501.5681577957176L1620.6695074088072 498.52761740320904L1620.2753632838526 498.52761740320904Q1603.8620757946628 516.573787695783 1582.9724371720577 516.573787695783ZM1690.2077923115496 424.14699039387926Q1704.5940528724002 409.14136049381386 1724.244952816576 409.14136049381386Q1743.9240059125339 409.14136049381386 1758.619951142992 423.724693117142Q1773.3158963734502 438.3361788922525 1773.3158963734502 462.85757409479845Q1773.3158963734502 487.3789692973443 1758.619951142992 501.9904550724549Q1743.9240059125339 516.573787695783 1724.244952816576 516.573787695783Q1704.5940528724002 516.573787695783 1690.2077923115496 501.5681577957176L1690.2077923115496 501.5681577957176L1689.5884229723347 501.5681577957176L1687.364323981518 514.546760767444L1671.148108554806 514.546760767444L1671.148108554806 366.57379499869404L1689.5884229723347 366.57379499869404L1689.5884229723347 424.14699039387926L1690.2077923115496 424.14699039387926ZM1721.6267097008047 499.3440588049011L1721.6267097008047 499.3440588049011Q1736.63233960087 499.3440588049011 1745.7539607783958 489.82829350242065Q1754.8755819559212 480.2843750481577 1754.8755819559212 462.85757409479845Q1754.8755819559212 445.4307731414392 1745.7539607783958 435.8868546871762Q1736.63233960087 426.3710893846957 1721.6267097008047 426.3710893846957L1721.6267097008047 426.3710893846957Q1703.3834673457534 426.3710893846957 1689.5884229723347 441.5737913472385L1689.5884229723347 441.5737913472385L1689.5884229723347 484.14135684235833Q1703.3834673457534 499.3440588049011 1721.6267097008047 499.3440588049011Z " fill="#fbeaeb" transform="matrix(0.4946871550414392,0,0,0.4946871550414392,-2.2366073562973248,81.55909761623604)"/></g></svg>